# 3ds Max Wavefront OBJ Exporter v0.99 - (c)2007 guruware
# File Created: 25.03.2021 16:31:31

mtllib caillou2.mtl

#
# object GeoSphere006
#

v  -9.7326 8.7741 -43.5447
v  -16.5396 4.3440 -60.9308
v  3.0401 7.0776 -52.4638
v  -1.0227 4.9679 -37.1495
v  -13.8306 1.3579 -30.7026
v  -20.8745 5.8629 -46.1740
v  -24.3362 -1.9013 -59.8571
v  -4.9064 -1.7448 -60.4654
v  9.4677 -1.6873 -44.3408
v  -7.6455 -2.0612 -28.7591
v  -20.4528 -2.0890 -39.8891
v  -7.4537 -4.7987 -45.9748
v  7.6709 -4.6794 -48.4419
v  -5.5964 -4.9540 -58.7835
v  -8.0306 -4.8025 -30.7774
v  -19.1098 -4.7543 -41.2542
v  -22.6840 -4.8469 -58.1104
v  -24.2061 -2.6833 -59.7521
v  -4.9919 -2.7419 -60.1543
v  9.3737 -2.4878 -44.3750
v  -7.6435 -2.6928 -29.0526
v  -20.3040 -2.6607 -40.1348
# 22 vertices

vn -0.0627 0.9849 0.1615
vn -0.2060 0.5974 -0.7750
vn 0.6052 0.6878 -0.4008
vn 0.4414 0.7028 0.5579
vn -0.4693 0.2594 0.8441
vn -0.7081 0.6924 0.1387
vn -0.7911 0.1326 -0.5971
vn 0.3852 -0.0074 -0.9228
vn 0.9784 0.1843 0.0941
vn 0.0904 0.0025 0.9959
vn -0.8691 -0.1212 0.4795
vn 0.0023 -1.0000 0.0055
vn 0.7623 -0.3937 -0.5137
vn 0.1602 -0.8428 -0.5139
vn -0.0268 -0.8197 0.5721
vn -0.4540 -0.8591 0.2362
vn -0.4567 -0.8473 -0.2711
vn -0.6975 -0.4314 -0.5722
vn 0.3655 -0.4236 -0.8288
vn 0.8919 -0.4390 0.1090
vn 0.0221 -0.5106 0.8596
vn -0.7614 -0.4937 0.4201
# 22 vertex normals

vt 0.6000 1.0000 17.3571
vt 0.5000 0.6476 17.3571
vt 0.7000 0.6476 17.3571
vt 0.8000 1.0000 17.3571
vt 0.9000 0.6476 17.3571
vt 0.0000 1.0000 17.3571
vt -0.1000 0.6476 17.3571
vt 0.1000 0.6476 17.3571
vt 0.2000 1.0000 17.3571
vt 0.3000 0.6476 17.3571
vt 0.4000 1.0000 17.3571
vt 0.4040 0.3743 17.3571
vt 0.5998 0.3805 17.3571
vt 0.7997 0.3776 17.3571
vt -0.1970 0.3781 17.3571
vt -0.0015 0.3724 17.3571
vt 0.0010 0.3756 17.3571
vt 0.2004 0.3716 17.3571
vt 0.7000 0.0000 17.3571
vt 0.7878 0.3095 17.3571
vt 0.6127 0.3075 17.3571
vt -0.1000 0.0000 17.3571
vt -0.0130 0.3066 17.3571
vt -0.1878 0.3095 17.3571
vt 0.1000 0.0000 17.3571
vt 0.1882 0.3107 17.3571
vt 0.0130 0.3066 17.3571
vt 0.3000 0.0000 17.3571
vt 0.3873 0.3075 17.3571
vt 0.2118 0.3107 17.3571
vt 0.5000 0.0000 17.3571
vt 0.5873 0.3075 17.3571
vt 0.4127 0.3075 17.3571
vt 0.4000 0.3524 17.3571
vt 0.6000 0.3524 17.3571
vt 0.8000 0.3524 17.3571
vt -0.2000 0.3524 17.3571
vt 0.0000 0.3524 17.3571
vt 0.2000 0.3524 17.3571
# 39 texture coords

o GeoSphere006
g GeoSphere006
usemtl wire_086086086
s 1
f 3/3/3 2/2/2 1/1/1 
f 4/5/4 3/3/3 1/4/1 
f 5/8/5 4/7/4 1/6/1 
f 6/10/6 5/8/5 1/9/1 
f 2/2/2 6/10/6 1/11/1 
s 2
f 8/13/8 7/12/7 2/2/2 
f 9/14/9 8/13/8 3/3/3 
s 4
f 10/16/10 9/15/9 4/7/4 
s 2
f 11/18/11 10/17/10 5/8/5 
s 4
f 7/12/7 11/18/11 6/10/6 
s 2
f 2/2/2 3/3/3 8/13/8 
s 8
f 3/3/3 4/5/4 9/14/9 
s 16
f 4/7/4 5/8/5 10/17/10 
s 8
f 5/8/5 6/10/6 11/18/11 
s 16
f 6/10/6 2/2/2 7/12/7 
s 1
f 14/21/14 13/20/13 12/19/12 
f 13/24/13 15/23/15 12/22/12 
f 15/27/15 16/26/16 12/25/12 
f 16/30/16 17/29/17 12/28/12 
f 17/33/17 14/32/14 12/31/12 
s 2
f 19/35/19 18/34/18 7/12/7 8/13/8 
f 20/36/20 19/35/19 8/13/8 9/14/9 
s 4
f 21/38/21 20/37/20 9/15/9 10/16/10 
s 2
f 22/39/22 21/38/21 10/17/10 11/18/11 
s 4
f 18/34/18 22/39/22 11/18/11 7/12/7 
s 1
f 19/35/19 20/36/20 13/20/13 14/21/14 
f 20/37/20 21/38/21 15/23/15 13/24/13 
f 21/38/21 22/39/22 16/26/16 15/27/15 
f 22/39/22 18/34/18 17/29/17 16/30/16 
f 18/34/18 19/35/19 14/32/14 17/33/17 
# 10 polygons - 20 triangles

