# 3ds Max Wavefront OBJ Exporter v0.99 - (c)2007 guruware
# File Created: 25.03.2021 16:31:44

mtllib caillou1.mtl

#
# object GeoSphere005
#

v  2.2114 14.9786 -0.0052
v  25.3874 14.0674 -0.0052
v  5.9801 13.7990 -17.2049
v  -12.5597 11.3423 -11.5652
v  -8.9073 7.1386 9.1199
v  10.5437 12.3845 14.7649
v  27.6183 3.3433 8.8444
v  17.0896 3.5255 -11.4011
v  -4.6452 3.5925 -21.3027
v  -15.2721 3.1571 -2.3633
v  -1.2428 3.1247 14.5366
v  3.7166 -0.0307 -3.3771
v  -3.9517 0.1083 -19.3286
v  15.6945 -0.2114 -10.0383
v  -13.1148 -0.0351 -2.6713
v  -0.4222 0.0210 12.5737
v  25.2259 -0.0868 7.6677
v  27.4622 2.4326 8.7399
v  16.8148 2.3644 -11.1951
v  -4.5737 2.6603 -21.2123
v  -14.9815 2.4217 -2.4716
v  -1.0581 2.4589 14.2850
# 22 vertices

vn -0.1799 0.9756 0.1262
vn 0.7590 0.6379 -0.1302
vn 0.1953 0.6733 -0.7131
vn -0.7583 0.5590 -0.3356
vn -0.7255 0.2790 0.6291
vn 0.0851 0.5598 0.8242
vn 0.8889 0.0373 0.4566
vn 0.6787 -0.0835 -0.7296
vn -0.3094 0.0953 -0.9461
vn -0.9911 -0.0435 0.1260
vn -0.3425 -0.1185 0.9320
vn -0.0059 -1.0000 0.0011
vn -0.1792 -0.8151 -0.5509
vn 0.3739 -0.8373 -0.3989
vn -0.5545 -0.8307 0.0495
vn -0.1852 -0.8330 0.5213
vn 0.4872 -0.8413 0.2342
vn 0.8249 -0.4173 0.3812
vn 0.6261 -0.3992 -0.6698
vn -0.2786 -0.3405 -0.8980
vn -0.8782 -0.4750 0.0562
vn -0.2687 -0.4896 0.8295
# 22 vertex normals

vt 0.6000 1.0000 17.3571
vt 0.5000 0.6476 17.3571
vt 0.7000 0.6476 17.3571
vt 0.8000 1.0000 17.3571
vt 0.9000 0.6476 17.3571
vt 0.0000 1.0000 17.3571
vt -0.1000 0.6476 17.3571
vt 0.1000 0.6476 17.3571
vt 0.2000 1.0000 17.3571
vt 0.3000 0.6476 17.3571
vt 0.4000 1.0000 17.3571
vt 0.4040 0.3743 17.3571
vt 0.5998 0.3805 17.3571
vt 0.7997 0.3776 17.3571
vt -0.1970 0.3781 17.3571
vt -0.0015 0.3724 17.3571
vt 0.0010 0.3756 17.3571
vt 0.2004 0.3716 17.3571
vt 0.7000 0.0000 17.3571
vt 0.7878 0.3095 17.3571
vt 0.6127 0.3075 17.3571
vt -0.1000 0.0000 17.3571
vt -0.0130 0.3066 17.3571
vt -0.1878 0.3095 17.3571
vt 0.1000 0.0000 17.3571
vt 0.1882 0.3107 17.3571
vt 0.0130 0.3066 17.3571
vt 0.3000 0.0000 17.3571
vt 0.3873 0.3075 17.3571
vt 0.2118 0.3107 17.3571
vt 0.5000 0.0000 17.3571
vt 0.5873 0.3075 17.3571
vt 0.4127 0.3075 17.3571
vt 0.4000 0.3524 17.3571
vt 0.6000 0.3524 17.3571
vt 0.8000 0.3524 17.3571
vt -0.2000 0.3524 17.3571
vt 0.0000 0.3524 17.3571
vt 0.2000 0.3524 17.3571
# 39 texture coords

o GeoSphere005
g GeoSphere005
usemtl wire_086086086
s 1
f 1/1/1 2/2/2 3/3/3 
f 1/4/1 3/3/3 4/5/4 
f 1/6/1 4/7/4 5/8/5 
f 1/9/1 5/8/5 6/10/6 
f 1/11/1 6/10/6 2/2/2 
s 2
f 2/2/2 7/12/7 8/13/8 
f 3/3/3 8/13/8 9/14/9 
s 4
f 4/7/4 9/15/9 10/16/10 
s 2
f 5/8/5 10/17/10 11/18/11 
s 4
f 6/10/6 11/18/11 7/12/7 
s 2
f 8/13/8 3/3/3 2/2/2 
s 8
f 9/14/9 4/5/4 3/3/3 
s 16
f 10/17/10 5/8/5 4/7/4 
s 8
f 11/18/11 6/10/6 5/8/5 
s 16
f 7/12/7 2/2/2 6/10/6 
s 1
f 12/19/12 13/20/13 14/21/14 
f 12/22/12 15/23/15 13/24/13 
f 12/25/12 16/26/16 15/27/15 
f 12/28/12 17/29/17 16/30/16 
f 12/31/12 14/32/14 17/33/17 
s 2
f 8/13/8 7/12/7 18/34/18 19/35/19 
f 9/14/9 8/13/8 19/35/19 20/36/20 
s 4
f 10/16/10 9/15/9 20/37/20 21/38/21 
s 2
f 11/18/11 10/17/10 21/38/21 22/39/22 
s 4
f 7/12/7 11/18/11 22/39/22 18/34/18 
s 1
f 14/21/14 13/20/13 20/36/20 19/35/19 
f 13/24/13 15/23/15 21/38/21 20/37/20 
f 15/27/15 16/26/16 22/39/22 21/38/21 
f 16/30/16 17/29/17 18/34/18 22/39/22 
f 17/33/17 14/32/14 19/35/19 18/34/18 
# 10 polygons - 20 triangles

